<svg width="117" height="86" viewBox="0 0 117 86" version="1.1" xmlns="http://www.w3.org/2000/svg" xmlns:xlink="http://www.w3.org/1999/xlink">
<title>Frame 3</title>
<desc>Created using Figma</desc>
<g id="Canvas" transform="translate(365 984)">
<g id="Frame 3">
<g id="Canvas">
<g id="Frame 2">
<g id="Group">
<g id="FLEDGE">
<g id="Vector">
<use xlink:href="#path0_fill" transform="translate(-364.956 -984)" fill="#FFFFFF"/>
</g>
</g>
<g id="STUDIO">
<g id="Vector">
<use xlink:href="#path1_fill" transform="translate(-365 -937.726)" fill="#FFFFFF"/>
</g>
</g>
</g>
</g>
</g>
</g>
</g>
<defs>
<path id="path0_fill" d="M 1.09248 38.7494L 4.36992 38.7494C 4.91616 38.7494 5.4624 38.7494 5.4624 37.647L 5.4624 22.1032C 5.4624 21.0007 5.4624 21.0007 6.55488 21.0007L 10.9248 21.0007C 11.7442 21.0007 12.0173 20.7251 12.0173 19.8983L 12.0173 16.9219C 12.0173 16.0951 11.7442 15.8195 10.9248 15.8195L 6.55488 15.8195C 5.4624 15.8195 5.4624 15.8195 5.4624 14.7171L 5.4624 6.44905C 5.4624 5.34665 5.4624 5.34665 6.55488 5.34665L 12.6181 5.34665C 13.4375 5.34665 13.7106 5.07105 13.7106 4.24425L 13.7106 1.26776C 13.7106 0.440961 13.4375 0.16536 12.6181 0.16536L 1.09248 0.16536C 0.27312 0.16536 6.51169e-08 0.440961 6.51169e-08 1.26776L 6.51169e-08 37.647C 6.51169e-08 38.7494 0.54624 38.7494 1.09248 38.7494ZM 20.787 38.7494L 32.3127 38.7494C 33.132 38.7494 33.4051 38.4738 33.4051 37.647L 33.4051 34.3398C 33.4051 33.513 33.132 33.2374 32.3127 33.2374L 26.304 33.2374C 25.1569 33.2374 25.1569 33.2374 25.1569 32.0799L 25.1569 1.26776C 25.1569 0.440961 24.8838 0.16536 24.0644 0.16536L 20.787 0.16536C 19.9676 0.16536 19.6945 0.440961 19.6945 1.26776L 19.6945 37.647C 19.6945 38.4738 19.9676 38.7494 20.787 38.7494ZM 39.6813 38.7494L 51.2069 38.7494C 52.0263 38.7494 52.2994 38.4738 52.2994 37.647L 52.2994 34.6705C 52.2994 33.8437 52.0263 33.5681 51.2069 33.5681L 45.1437 33.5681C 44.0512 33.5681 44.0512 33.5681 44.0512 32.4657L 44.0512 22.1032C 44.0512 21.0007 44.0512 21.0007 45.1437 21.0007L 51.2069 21.0007C 52.0263 21.0007 52.2994 20.7251 52.2994 19.8983L 52.2994 16.9219C 52.2994 16.0951 52.0263 15.8195 51.2069 15.8195L 45.1437 15.8195C 44.0512 15.8195 44.0512 15.8195 44.0512 14.7171L 44.0512 6.44905C 44.0512 5.34665 44.0512 5.34665 45.1437 5.34665L 51.2069 5.34665C 52.0263 5.34665 52.2994 5.07105 52.2994 4.24425L 52.2994 1.26776C 52.2994 0.440961 52.0263 0.16536 51.2069 0.16536L 39.6813 0.16536C 38.8619 0.16536 38.5888 0.440961 38.5888 1.26776L 38.5888 37.647C 38.5888 38.7494 39.135 38.7494 39.6813 38.7494ZM 58.2834 37.647C 58.2834 38.4738 58.5565 38.7494 59.3759 38.7494L 66.477 38.7494C 71.9394 38.7494 74.6706 35.9934 74.6706 27.7254L 74.6706 11.1894C 74.6706 2.92136 71.9394 0.16536 66.477 0.16536L 59.3759 0.16536C 58.5565 0.16536 58.2834 0.440961 58.2834 1.26776L 58.2834 37.647ZM 66.477 5.07105C 69.2082 5.07105 69.2082 7.88217 69.2082 10.6933L 69.2082 28.2215C 69.2082 31.0326 69.2082 33.8437 66.477 33.8437L 64.8383 33.8437C 63.7458 33.8437 63.7458 33.8437 63.7458 32.6862L 63.7458 6.17345C 63.7458 5.07105 63.7458 5.07105 64.8383 5.07105L 66.477 5.07105ZM 89.0014 16.9219L 89.0014 19.8983C 89.0014 20.4495 89.0014 21.0007 90.0939 21.0007L 90.5309 21.0007C 91.6234 21.0007 91.6234 21.0007 91.6234 22.1032L 91.6234 28.2215C 91.6234 31.0326 91.6234 33.8437 88.8922 33.8437C 86.161 33.8437 86.161 30.9775 86.161 28.2215L 86.161 10.6933C 86.161 7.93729 86.161 5.07105 88.8922 5.07105C 91.3503 5.07105 91.6234 7.38609 91.6234 10.087C 91.6234 10.9138 91.8965 11.1894 92.7159 11.1894L 95.9387 11.1894C 96.758 11.1894 97.0311 10.7484 97.0311 9.92161C 97.0311 3.96865 94.7369 4.81861e-08 88.8922 4.81861e-08C 83.4298 4.81861e-08 80.6986 2.70088 80.6986 11.024L 80.6986 27.8908C 80.6986 36.2139 83.4298 38.9148 88.8922 38.9148C 94.3546 38.9148 97.0858 36.1588 97.0858 27.8908L 97.0858 16.9219C 97.0858 16.0951 96.8126 15.8195 95.9933 15.8195L 90.0939 15.8195C 89.0014 15.8195 89.0014 16.3707 89.0014 16.9219ZM 104.206 38.7494L 115.731 38.7494C 116.551 38.7494 116.824 38.4738 116.824 37.647L 116.824 34.6705C 116.824 33.8437 116.551 33.5681 115.731 33.5681L 109.668 33.5681C 108.576 33.5681 108.576 33.5681 108.576 32.4657L 108.576 22.1032C 108.576 21.0007 108.576 21.0007 109.668 21.0007L 115.731 21.0007C 116.551 21.0007 116.824 20.7251 116.824 19.8983L 116.824 16.9219C 116.824 16.0951 116.551 15.8195 115.731 15.8195L 109.668 15.8195C 108.576 15.8195 108.576 15.8195 108.576 14.7171L 108.576 6.44905C 108.576 5.34665 108.576 5.34665 109.668 5.34665L 115.731 5.34665C 116.551 5.34665 116.824 5.07105 116.824 4.24425L 116.824 1.26776C 116.824 0.440961 116.551 0.16536 115.731 0.16536L 104.206 0.16536C 103.386 0.16536 103.113 0.440961 103.113 1.26776L 103.113 37.647C 103.113 38.7494 103.66 38.7494 104.206 38.7494Z"/>
<path id="path1_fill" d="M 6.18958 21.4383C 9.0892 24.6456 11.0966 27.8529 11.0966 30.6663C 11.0966 31.7917 11.0966 34.5488 8.30853 34.5488C 5.79925 34.5488 5.52043 32.1855 5.52043 29.4284C 5.52043 28.5844 5.24163 28.303 4.4052 28.303L 1.11524 28.303C 0.27881 28.303 -2.89408e-08 28.7532 -2.89408e-08 29.5972C -2.89408e-08 35.6742 2.342 39.7255 8.30853 39.7255C 13.8847 39.7255 16.6728 35.9555 16.6728 30.8914C 16.6728 25.9397 13.7174 21.7196 10.4833 18.1747C 7.58363 14.9674 5.5762 11.8726 5.5762 9.05922C 5.5762 7.93385 5.5762 5.17669 8.3643 5.17669C 10.8736 5.17669 11.1524 7.53997 11.1524 10.2971C 11.1524 11.1411 11.4312 11.4225 12.2676 11.4225L 15.5576 11.4225C 16.394 11.4225 16.6728 10.9723 16.6728 10.1283C 16.6728 4.05133 14.3308 -3.06639e-08 8.3643 -3.06639e-08C 2.7881 -3.06639e-08 -2.89408e-08 3.76998 -2.89408e-08 8.83414C -2.89408e-08 13.7858 2.95538 17.8934 6.18958 21.4383ZM 20.7582 1.29417L 20.7582 4.33267C 20.7582 4.89535 20.7582 5.45804 21.8735 5.45804L 25.275 5.45804C 26.3344 5.45804 26.3344 5.45804 26.3344 6.5834L 26.3344 38.4313C 26.3344 39.5567 26.8921 39.5567 27.4497 39.5567L 30.7954 39.5567C 31.353 39.5567 31.9106 39.5567 31.9106 38.4313L 31.9106 6.5834C 31.9106 5.45804 31.9106 5.45804 33.0259 5.45804L 36.3716 5.45804C 37.208 5.45804 37.4868 5.17669 37.4868 4.33267L 37.4868 1.29417C 37.4868 0.450147 37.208 0.168805 36.3716 0.168805L 21.8735 0.168805C 20.7582 0.168805 20.7582 0.731489 20.7582 1.29417ZM 53.9412 1.29417L 53.9412 28.8094C 53.9412 31.6791 53.9412 34.5488 51.1531 34.5488C 48.365 34.5488 48.365 31.6229 48.365 28.8094L 48.365 1.29417C 48.365 0.450147 48.0862 0.168805 47.2497 0.168805L 43.904 0.168805C 43.0676 0.168805 42.7888 0.450147 42.7888 1.29417L 42.7888 28.303C 42.7888 36.7995 45.5769 39.5567 51.1531 39.5567C 56.7293 39.5567 59.5174 36.7433 59.5174 28.303L 59.5174 1.29417C 59.5174 0.450147 59.2386 0.168805 58.4021 0.168805L 55.0564 0.168805C 54.22 0.168805 53.9412 0.450147 53.9412 1.29417ZM 65.6705 38.4313C 65.6705 39.2754 65.9493 39.5567 66.7858 39.5567L 74.0348 39.5567C 79.611 39.5567 82.3991 36.7433 82.3991 28.303L 82.3991 11.4225C 82.3991 2.98223 79.611 0.168805 74.0348 0.168805L 66.7858 0.168805C 65.9493 0.168805 65.6705 0.450147 65.6705 1.29417L 65.6705 38.4313ZM 74.0348 5.17669C 76.8229 5.17669 76.8229 8.04638 76.8229 10.9161L 76.8229 28.8094C 76.8229 31.6791 76.8229 34.5488 74.0348 34.5488L 72.362 34.5488C 71.2467 34.5488 71.2467 34.5488 71.2467 33.3672L 71.2467 6.30206C 71.2467 5.17669 71.2467 5.17669 72.362 5.17669L 74.0348 5.17669ZM 89.6679 39.5567L 93.0136 39.5567C 93.5712 39.5567 94.1289 39.5567 94.1289 38.4313L 94.1289 1.29417C 94.1289 0.450147 93.8501 0.168805 93.0136 0.168805L 89.6679 0.168805C 88.8315 0.168805 88.5527 0.450147 88.5527 1.29417L 88.5527 38.4313C 88.5527 39.5567 89.1103 39.5567 89.6679 39.5567ZM 117 28.4718L 117 11.2537C 117 2.81342 114.212 -3.06639e-08 108.636 -3.06639e-08C 103.06 -3.06639e-08 100.271 2.75715 100.271 11.2537L 100.271 28.4718C 100.271 36.9684 103.06 39.7255 108.636 39.7255C 114.212 39.7255 117 36.9121 117 28.4718ZM 111.424 10.9161L 111.424 28.8094C 111.424 31.6791 111.424 34.5488 108.636 34.5488C 105.848 34.5488 105.848 31.6229 105.848 28.8094L 105.848 10.9161C 105.848 8.10265 105.848 5.17669 108.636 5.17669C 111.424 5.17669 111.424 8.04638 111.424 10.9161Z"/>
</defs>
</svg>
