<svg xmlns="http://www.w3.org/2000/svg" width="354" height="111" xmlns:xlink="http://www.w3.org/1999/xlink">
  <desc>
    Created using Figma
  </desc>
  <g transform="translate(0 49.15)">
    <use xlink:href="#a"/>
    <use xlink:href="#b"/>
    <use xlink:href="#c"/>
    <use xlink:href="#d"/>
    <use xlink:href="#e"/>
    <use xlink:href="#f"/>
    <use xlink:href="#g"/>
    <use xlink:href="#h"/>
    <use xlink:href="#i"/>
    <use xlink:href="#j"/>
    <use xlink:href="#k"/>
    <use xlink:href="#l"/>
  </g>
  <use xlink:href="#m" transform="rotate(45 119.385 199.45)"/>
  <use xlink:href="#n" transform="translate(160 108)"/>
  <defs>
    <path id="a" d="M0 .35h15.65V4.4h-10v13.5h7.75v4H5.65v18.95H0V.35z"/>
    <path id="b" d="M26.03.35h5.65V36.8h10.35v4.05h-16V.35z"/>
    <path id="c" d="M52.404.35h15.7v4.2h-10.05v13.4h8.15v4h-8.15V36.8h10.15v4.05h-15.8V.35z"/>
    <path id="d" d="M79.266.35h8.8c4.366 0 7.45 1 9.25 3 1.833 2 2.75 5.117 2.75 9.35v14.9c0 4.467-.9 7.8-2.7 10-1.767 2.167-4.717 3.25-8.85 3.25h-9.25V.35zm8.85 36.45c1.966 0 3.383-.383 4.25-1.15.9-.767 1.45-1.8 1.65-3.1.233-1.333.35-3.333.35-6V13.4c0-2.3-.15-4.05-.45-5.25-.267-1.233-.85-2.133-1.75-2.7-.9-.6-2.3-.9-4.2-.9h-3.05V36.8h3.2z"/>
    <path id="e" d="M121.783 41.35c-3.667 0-6.317-1.15-7.95-3.45-1.634-2.333-2.45-5.783-2.45-10.35V14c0-3.133.316-5.7.95-7.7.666-2.033 1.783-3.583 3.35-4.65 1.6-1.1 3.783-1.65 6.55-1.65 3.733 0 6.416.95 8.05 2.85 1.666 1.9 2.5 4.883 2.5 8.95v1.5h-5.3v-1.25c0-1.933-.117-3.417-.35-4.45-.234-1.067-.734-1.867-1.5-2.4-.734-.533-1.834-.8-3.3-.8-1.567 0-2.734.367-3.5 1.1-.767.7-1.267 1.65-1.5 2.85-.2 1.2-.3 2.8-.3 4.8v15c0 3.1.366 5.333 1.1 6.7.766 1.333 2.216 2 4.35 2 2.1 0 3.533-.733 4.3-2.2.8-1.467 1.2-3.817 1.2-7.05v-2.8h-5.15v-4h10.25v20.05h-3.55l-.55-4.65c-1.267 3.433-3.667 5.15-7.2 5.15z"/>
    <path id="f" d="M145.39.35h15.7v4.2h-10.05v13.4h8.15v4h-8.15V36.8h10.15v4.05h-15.8V.35z"/>
    <path id="g" d="M199.728 41.3c-3.4 0-6-1.05-7.8-3.15-1.767-2.1-2.75-4.983-2.95-8.65l5-1.35c.166 2.6.666 4.7 1.5 6.3.866 1.6 2.283 2.4 4.25 2.4 1.466 0 2.566-.4 3.3-1.2.766-.833 1.15-2.017 1.15-3.55 0-1.633-.35-2.983-1.05-4.05-.7-1.1-1.817-2.35-3.35-3.75l-6.8-6c-1.367-1.233-2.367-2.533-3-3.9-.6-1.4-.9-3.083-.9-5.05 0-3 .866-5.3 2.6-6.9C193.41.817 195.794 0 198.828 0c3.166 0 5.533.85 7.1 2.55 1.566 1.7 2.516 4.333 2.85 7.9l-4.8 1.3c-.167-2.3-.6-4.1-1.3-5.4-.7-1.333-1.934-2-3.7-2-3.234 0-4.85 1.483-4.85 4.45 0 1.2.2 2.2.6 3 .4.767 1.083 1.6 2.05 2.5l6.85 6c1.766 1.633 3.166 3.367 4.2 5.2 1.066 1.8 1.6 3.85 1.6 6.15 0 2.967-.9 5.317-2.7 7.05-1.8 1.733-4.134 2.6-7 2.6z"/>
    <path id="h" d="M224.46 4.55h-7.35V.35h20.15v4.2h-7.15v36.3h-5.65V4.55z"/>
    <path id="i" d="M257.28 41.3c-2.833 0-5.05-.567-6.65-1.7-1.567-1.133-2.65-2.717-3.25-4.75-.6-2.033-.9-4.583-.9-7.65V.35h5.4v27.1c0 3.067.35 5.4 1.05 7 .733 1.6 2.183 2.4 4.35 2.4s3.6-.8 4.3-2.4c.733-1.6 1.1-3.933 1.1-7V.35h5.35V27.2c0 3.067-.3 5.617-.9 7.65-.6 2.033-1.683 3.617-3.25 4.75s-3.767 1.7-6.6 1.7z"/>
    <path id="j" d="M280.48.35h8.8c4.365 0 7.45 1 9.25 3 1.832 2 2.75 5.117 2.75 9.35v14.9c0 4.467-.9 7.8-2.7 10-1.768 2.167-4.718 3.25-8.85 3.25h-9.25V.35zm8.85 36.45c1.965 0 3.382-.383 4.25-1.15.9-.767 1.45-1.8 1.65-3.1.232-1.333.35-3.333.35-6V13.4c0-2.3-.152-4.05-.45-5.25-.268-1.233-.85-2.133-1.75-2.7-.9-.6-2.3-.9-4.2-.9h-3.05V36.8h3.2z"/>
    <path id="k" d="M313.646.35h5.55v40.5h-5.55V.35z"/>
    <path id="l" d="M342.598 41.3c-3.967 0-6.817-1.117-8.55-3.35-1.7-2.267-2.55-5.533-2.55-9.8V12.8c0-4.2.867-7.383 2.6-9.55 1.733-2.167 4.567-3.25 8.5-3.25s6.75 1.1 8.45 3.3c1.733 2.167 2.6 5.333 2.6 9.5v15.4c0 4.2-.867 7.433-2.6 9.7-1.733 2.267-4.55 3.4-8.45 3.4zm0-4.45c2.1 0 3.517-.617 4.25-1.85.733-1.233 1.1-3.1 1.1-5.6V11.65c0-2.467-.367-4.283-1.1-5.45-.733-1.2-2.15-1.8-4.25-1.8-2.133 0-3.567.6-4.3 1.8-.733 1.167-1.1 2.983-1.1 5.45V29.4c0 2.5.367 4.367 1.1 5.6.733 1.233 2.167 1.85 4.3 1.85z"/>
    <path id="m" d="M32.81 4.95l-22.8 22.82c-.286.28-.45.662-.456 1.063V49.8L.446 58.905C.16 59.19 0 59.578 0 59.982s.16.79.446 1.077c.286.284.674.445 1.078.445s.792-.16 1.078-.446l9.108-9.105h20.98c.4-.005.78-.17 1.06-.455l22.832-22.82c1.56-1.56 2.8-3.41 3.643-5.45.845-2.038 1.28-4.223 1.28-6.43 0-2.205-.435-4.39-1.28-6.43-.844-2.037-2.082-3.89-3.643-5.45-1.56-1.56-3.414-2.797-5.453-3.64C49.089.434 46.901 0 44.695 0c-4.458 0-8.734 1.77-11.886 4.92v.03zm-.76 44.062H14.747l9.108-9.104h17.184l-8.987 9.104zm22.376-22.364L43.74 37.328c-.233-.247-.544-.407-.88-.454H26.737l21.434-21.24c.302-.303.472-.713.472-1.14 0-.426-.17-.835-.472-1.137-.302-.302-.71-.472-1.138-.472-.427 0-.837.17-1.14.472L22.003 37.36 12.5 46.765V29.47l9.107-9.104v4.37c0 .402.16.788.445 1.073.285.283.67.443 1.073.443.403 0 .79-.16 1.074-.444.283-.286.443-.672.443-1.074v-7.283L34.966 7.106c2.58-2.58 6.08-4.03 9.73-4.03 3.65 0 7.15 1.45 9.73 4.03s4.03 6.077 4.03 9.725c0 3.65-1.45 7.147-4.03 9.727v.09z"/>
    <path id="n" d="M0 3h34v-6H0v6z"/>
  </defs>
</svg>
