<svg viewBox="0 0 86 40" version="1.1" xmlns="http://www.w3.org/2000/svg" xmlns:xlink="http://www.w3.org/1999/xlink">
<title>logo</title>
<desc>Created using Figma</desc>
<g id="Canvas" transform="translate(1201 326)">
<g id="logo">
<g id="Group 2.1">
<g id="Rectangle">
<use xlink:href="#path0_fill" transform="matrix(0.385883 -0.922548 0.921228 0.389023 -1200.2 -314.559)" fill="#ADD9F4" fill-opacity="0.2"/>
</g>
<g id="Rectangle">
<use xlink:href="#path1_fill" transform="matrix(0.921228 0.389023 -0.385883 0.922548 -1185.23 -313.768)" fill="#ADD9F4" fill-opacity="0.2"/>
</g>
</g>
<g id="Group">
<g id="FLEDGE">
<use xlink:href="#path2_fill" transform="translate(-1185.58 -326)" fill="#333333"/>
<use xlink:href="#path3_fill" transform="translate(-1185.58 -326)" fill="#333333"/>
<use xlink:href="#path4_fill" transform="translate(-1185.58 -326)" fill="#333333"/>
<use xlink:href="#path5_fill" transform="translate(-1185.58 -326)" fill="#333333"/>
<use xlink:href="#path6_fill" transform="translate(-1185.58 -326)" fill="#333333"/>
</g>
<g id="STUDIO">
<use xlink:href="#path7_fill" transform="translate(-1191.8 -304.951)" fill="#333333"/>
<use xlink:href="#path8_fill" transform="translate(-1191.8 -304.951)" fill="#333333"/>
<use xlink:href="#path9_fill" transform="translate(-1191.8 -304.951)" fill="#333333"/>
<use xlink:href="#path10_fill" transform="translate(-1191.8 -304.951)" fill="#333333"/>
<use xlink:href="#path11_fill" transform="translate(-1191.8 -304.951)" fill="#333333"/>
<use xlink:href="#path12_fill" transform="translate(-1191.8 -304.951)" fill="#333333"/>
</g>
</g>
</g>
</g>
<defs>
<path id="path0_fill" d="M 0 0L 5.52354 0L 5.52354 19.39L 0 19.39L 0 0Z"/>
<path id="path1_fill" d="M 0 0L 5.52 0L 5.52 19.3873L 0 19.3873L 0 0Z"/>
<path id="path2_fill" d="M 8.44028 17.4402L 10.4057 17.1046L 10.4057 2.40927C 9.93943 2.2974 9.46115 2.2095 8.97081 2.14557C 8.48047 2.07365 7.98611 2.03769 7.48773 2.03769C 6.37844 2.03769 5.5746 2.28541 5.07622 2.78085C 4.58588 3.27629 4.34071 4.03143 4.34071 5.04628L 4.34071 5.98122L 7.36716 5.98122L 7.36716 7.73124L 4.34071 7.73124L 4.34071 17.1046L 6.30609 17.4402L 6.30609 18.9505L 0 18.9505L 0 17.4402L 1.96538 17.1046L 1.96538 7.73124L 0.229093 7.73124L 0.229093 5.98122L 1.96538 5.98122L 1.96538 5.04628C 1.96538 3.4401 2.43562 2.19751 3.37611 1.31851C 4.32464 0.439502 5.63489 0 7.30687 0C 7.99817 0 8.68143 0.0639275 9.35665 0.191783C 10.0319 0.319638 10.8156 0.503429 11.7079 0.743158L 12.781 0.743158L 12.781 17.1046L 14.7464 17.4402L 14.7464 18.9505L 8.44028 18.9505L 8.44028 17.4402Z"/>
<path id="path3_fill" d="M 22.6923 19.2022C 20.8756 19.2022 19.4287 18.6029 18.3516 17.4043C 17.2825 16.1976 16.7479 14.6354 16.7479 12.7176L 16.7479 12.1902C 16.7479 10.3443 17.2985 8.81001 18.3998 7.5874C 19.5091 6.3568 20.8193 5.74149 22.3306 5.74149C 24.0829 5.74149 25.4093 6.2689 26.3095 7.3237C 27.2179 8.3785 27.672 9.78491 27.672 11.5429L 27.672 13.0172L 19.2077 13.0172L 19.1715 13.0772C 19.1956 14.3238 19.5131 15.3506 20.124 16.1577C 20.7349 16.9568 21.591 17.3563 22.6923 17.3563C 23.4961 17.3563 24.1995 17.2445 24.8024 17.0207C 25.4133 16.789 25.9398 16.4733 26.3819 16.0738L 27.3103 17.608C 26.8441 18.0555 26.2251 18.4351 25.4535 18.7468C 24.6898 19.0504 23.7694 19.2022 22.6923 19.2022ZM 22.3306 7.59939C 21.5348 7.59939 20.8555 7.93501 20.2928 8.60625C 19.7302 9.26949 19.3845 10.1045 19.2559 11.1114L 19.28 11.1713L 25.2967 11.1713L 25.2967 10.8597C 25.2967 9.93274 25.0475 9.15762 24.5491 8.53433C 24.0508 7.91103 23.3112 7.59939 22.3306 7.59939Z"/>
<path id="path4_fill" d="M 38.8132 17.4043C 38.3872 17.9956 37.8647 18.4431 37.2457 18.7468C 36.6348 19.0504 35.9234 19.2022 35.1115 19.2022C 33.52 19.2022 32.274 18.6309 31.3737 17.4882C 30.4815 16.3375 30.0353 14.8272 30.0353 12.9573L 30.0353 12.7056C 30.0353 10.62 30.4815 8.93787 31.3737 7.65932C 32.274 6.38077 33.528 5.74149 35.1357 5.74149C 35.9073 5.74149 36.5866 5.88533 37.1734 6.173C 37.7682 6.45269 38.2746 6.86022 38.6926 7.39562L 38.6926 2.10961L 36.7273 1.77399L 36.7273 0.251715L 38.6926 0.251715L 41.068 0.251715L 41.068 17.1046L 43.0334 17.4402L 43.0334 18.9505L 39.0061 18.9505L 38.8132 17.4043ZM 32.4107 12.9573C 32.4107 14.2598 32.6799 15.3067 33.2185 16.0978C 33.7571 16.8889 34.5891 17.2844 35.7144 17.2844C 36.4218 17.2844 37.0166 17.1246 37.4989 16.805C 37.9812 16.4853 38.3791 16.0338 38.6926 15.4505L 38.6926 9.43331C 38.3872 8.88992 37.9893 8.45841 37.4989 8.13878C 37.0086 7.81914 36.4218 7.65932 35.7385 7.65932C 34.6051 7.65932 33.7651 8.12679 33.2185 9.06173C 32.6799 9.99667 32.4107 11.2113 32.4107 12.7056L 32.4107 12.9573Z"/>
<path id="path5_fill" d="M 44.8661 12.7056C 44.8661 10.62 45.3243 8.93787 46.2407 7.65932C 47.157 6.38077 48.4231 5.74149 50.0388 5.74149C 50.8587 5.74149 51.5781 5.90131 52.1971 6.22095C 52.816 6.54059 53.3345 7.00406 53.7525 7.61137L 53.9695 5.98122L 55.9711 5.98122L 55.9711 18.7827C 55.9711 20.4608 55.5008 21.7793 54.5604 22.7382C 53.6199 23.7051 52.2815 24.1886 50.5452 24.1886C 49.9182 24.1886 49.239 24.1007 48.5075 23.9249C 47.776 23.7571 47.1329 23.5253 46.5783 23.2297L 47.1932 21.3958C 47.6353 21.6275 48.1578 21.8193 48.7607 21.9711C 49.3636 22.1229 49.9504 22.1988 50.5211 22.1988C 51.5821 22.1988 52.3578 21.9032 52.8482 21.3118C 53.3466 20.7205 53.5958 19.8775 53.5958 18.7827L 53.5958 17.5481C 53.1697 18.0915 52.6593 18.503 52.0644 18.7827C 51.4696 19.0624 50.7863 19.2022 50.0147 19.2022C 48.415 19.2022 47.157 18.6269 46.2407 17.4762C 45.3243 16.3255 44.8661 14.8192 44.8661 12.9573L 44.8661 12.7056ZM 47.2414 12.9573C 47.2414 14.2598 47.5188 15.3067 48.0734 16.0978C 48.628 16.8889 49.4721 17.2844 50.6055 17.2844C 51.3209 17.2844 51.9198 17.1246 52.4021 16.805C 52.8844 16.4773 53.2823 16.0178 53.5958 15.4265L 53.5958 9.45728C 53.2903 8.90591 52.8924 8.4704 52.4021 8.15076C 51.9117 7.82313 51.3209 7.65932 50.6296 7.65932C 49.4962 7.65932 48.6481 8.13078 48.0855 9.07372C 47.5228 10.0166 47.2414 11.2273 47.2414 12.7056L 47.2414 12.9573Z"/>
<path id="path6_fill" d="M 64.7972 19.2022C 62.9805 19.2022 61.5336 18.6029 60.4565 17.4043C 59.3874 16.1976 58.8528 14.6354 58.8528 12.7176L 58.8528 12.1902C 58.8528 10.3443 59.4035 8.81001 60.5047 7.5874C 61.614 6.3568 62.9243 5.74149 64.4355 5.74149C 66.1878 5.74149 67.5142 6.2689 68.4145 7.3237C 69.3228 8.3785 69.777 9.78491 69.777 11.5429L 69.777 13.0172L 61.3126 13.0172L 61.2764 13.0772C 61.3005 14.3238 61.618 15.3506 62.229 16.1577C 62.8399 16.9568 63.696 17.3563 64.7972 17.3563C 65.601 17.3563 66.3044 17.2445 66.9073 17.0207C 67.5182 16.789 68.0447 16.4733 68.4868 16.0738L 69.4152 17.608C 68.949 18.0555 68.3301 18.4351 67.5584 18.7468C 66.7947 19.0504 65.8743 19.2022 64.7972 19.2022ZM 64.4355 7.59939C 63.6397 7.59939 62.9604 7.93501 62.3978 8.60625C 61.8351 9.26949 61.4894 10.1045 61.3608 11.1114L 61.3849 11.1713L 67.4016 11.1713L 67.4016 10.8597C 67.4016 9.93274 67.1524 9.15762 66.6541 8.53433C 66.1557 7.91103 65.4162 7.59939 64.4355 7.59939Z"/>
<path id="path7_fill" d="M 9.63397 9.80489L 7.84946 9.80489L 7.46362 8.24665C 7.17424 7.97496 6.80849 7.75921 6.36638 7.59939C 5.93231 7.43158 5.43795 7.34767 4.8833 7.34767C 4.03928 7.34767 3.41228 7.53146 3.00233 7.89905C 2.59237 8.26663 2.38739 8.71013 2.38739 9.22954C 2.38739 9.74096 2.56826 10.1445 2.92998 10.4402C 3.29171 10.7358 4.02722 10.9995 5.13651 11.2313C 6.78437 11.5829 8.01022 12.0623 8.81406 12.6696C 9.6179 13.269 10.0198 14.076 10.0198 15.0909C 10.0198 16.2416 9.54957 17.1725 8.60908 17.8837C 7.67663 18.5949 6.4548 18.9505 4.94359 18.9505C 3.95487 18.9505 3.06663 18.8386 2.27887 18.6149C 1.49112 18.3832 0.787759 18.0515 0.168806 17.62L 0.156748 14.6594L 1.94126 14.6594L 2.38739 16.3974C 2.6607 16.6451 3.03046 16.8249 3.49669 16.9368C 3.97095 17.0487 4.45325 17.1046 4.94359 17.1046C 5.78762 17.1046 6.44676 16.9368 6.92103 16.6012C 7.40333 16.2576 7.64448 15.8101 7.64448 15.2587C 7.64448 14.7393 7.44352 14.3118 7.0416 13.9762C 6.64772 13.6405 5.89614 13.3489 4.78684 13.1012C 3.20329 12.7575 2.00959 12.2901 1.20575 11.6987C 0.401918 11.1074 0 10.3083 0 9.30146C 0 8.24665 0.450148 7.34767 1.35044 6.60451C 2.25878 5.86136 3.4364 5.48978 4.8833 5.48978C 5.87202 5.48978 6.76026 5.61763 7.54802 5.87334C 8.33578 6.12905 8.9909 6.48465 9.5134 6.94013L 9.63397 9.80489Z"/>
<path id="path8_fill" d="M 16.3862 2.60105L 16.3862 5.72951L 18.858 5.72951L 18.858 7.47952L 16.3862 7.47952L 16.3862 15.3546C 16.3862 15.9619 16.5108 16.3894 16.76 16.6371C 17.0172 16.8849 17.3548 17.0087 17.7728 17.0087C 17.9818 17.0087 18.2149 16.9927 18.4721 16.9608C 18.7374 16.9208 18.9585 16.8809 19.1353 16.8409L 19.4609 18.4591C 19.2358 18.6029 18.9062 18.7188 18.4721 18.8067C 18.0381 18.9026 17.604 18.9505 17.1699 18.9505C 16.2053 18.9505 15.4377 18.6628 14.8669 18.0875C 14.2962 17.5042 14.0109 16.5932 14.0109 15.3546L 14.0109 7.47952L 11.949 7.47952L 11.949 5.72951L 14.0109 5.72951L 14.0109 2.60105L 16.3862 2.60105Z"/>
<path id="path9_fill" d="M 30.6141 16.781C 30.2041 17.4762 29.6736 18.0116 29.0225 18.3872C 28.3794 18.7627 27.6359 18.9505 26.7918 18.9505C 25.3771 18.9505 24.2718 18.499 23.476 17.5961C 22.6802 16.6931 22.2823 15.2867 22.2823 13.3768L 22.2823 7.5874L 20.7872 7.25178L 20.7872 5.72951L 22.2823 5.72951L 24.6577 5.72951L 24.6577 13.4008C 24.6577 14.7832 24.8626 15.7342 25.2726 16.2536C 25.6826 16.773 26.3216 17.0327 27.1897 17.0327C 28.0338 17.0327 28.7291 16.8649 29.2757 16.5293C 29.8303 16.1857 30.2483 15.7022 30.5297 15.0789L 30.5297 7.5874L 28.7813 7.25178L 28.7813 5.72951L 30.5297 5.72951L 32.905 5.72951L 32.905 16.8529L 34.4002 17.1885L 34.4002 18.6988L 30.7708 18.6988L 30.6141 16.781Z"/>
<path id="path10_fill" d="M 45.0711 17.1526C 44.645 17.7439 44.1226 18.1914 43.5036 18.495C 42.8927 18.7987 42.1813 18.9505 41.3694 18.9505C 39.7778 18.9505 38.5319 18.3792 37.6316 17.2365C 36.7393 16.0858 36.2932 14.5755 36.2932 12.7056L 36.2932 12.4539C 36.2932 10.3682 36.7393 8.68616 37.6316 7.4076C 38.5319 6.12905 39.7859 5.48978 41.3935 5.48978C 42.1652 5.48978 42.8445 5.63362 43.4313 5.92129C 44.0261 6.20097 44.5325 6.60851 44.9505 7.1439L 44.9505 1.85789L 42.9851 1.52227L 42.9851 0L 44.9505 0L 47.3258 0L 47.3258 16.8529L 49.2912 17.1885L 49.2912 18.6988L 45.264 18.6988L 45.0711 17.1526ZM 38.6685 12.7056C 38.6685 14.0081 38.9378 15.0549 39.4764 15.846C 40.0149 16.6371 40.8469 17.0327 41.9723 17.0327C 42.6797 17.0327 43.2745 16.8729 43.7568 16.5532C 44.2391 16.2336 44.637 15.7821 44.9505 15.1988L 44.9505 9.18159C 44.645 8.63821 44.2471 8.2067 43.7568 7.88706C 43.2665 7.56742 42.6797 7.4076 41.9964 7.4076C 40.863 7.4076 40.023 7.87507 39.4764 8.81001C 38.9378 9.74496 38.6685 10.9596 38.6685 12.4539L 38.6685 12.7056Z"/>
<path id="path11_fill" d="M 51.1119 17.1885L 53.0773 16.8529L 53.0773 7.5874L 51.1119 7.25178L 51.1119 5.72951L 55.4526 5.72951L 55.4526 16.8529L 57.418 17.1885L 57.418 18.6988L 51.1119 18.6988L 51.1119 17.1885Z"/>
<path id="path12_fill" d="M 59.2507 12.0943C 59.2507 10.1765 59.7732 8.59826 60.8182 7.35966C 61.8632 6.11307 63.282 5.48978 65.0745 5.48978C 66.8751 5.48978 68.2979 6.10908 69.3429 7.34767C 70.3959 8.58627 70.9224 10.1685 70.9224 12.0943L 70.9224 12.358C 70.9224 14.2918 70.3999 15.874 69.355 17.1046C 68.31 18.3352 66.8912 18.9505 65.0986 18.9505C 63.29 18.9505 61.8632 18.3352 60.8182 17.1046C 59.7732 15.866 59.2507 14.2838 59.2507 12.358L 59.2507 12.0943ZM 61.6261 12.358C 61.6261 13.7324 61.9155 14.8671 62.4942 15.7621C 63.081 16.6571 63.9492 17.1046 65.0986 17.1046C 66.224 17.1046 67.0801 16.6571 67.6669 15.7621C 68.2537 14.8671 68.5471 13.7324 68.5471 12.358L 68.5471 12.0943C 68.5471 10.7358 68.2537 9.60511 67.6669 8.70214C 67.0801 7.79916 66.216 7.34767 65.0745 7.34767C 63.9331 7.34767 63.073 7.79916 62.4942 8.70214C 61.9155 9.60511 61.6261 10.7358 61.6261 12.0943L 61.6261 12.358Z"/>
</defs>
</svg>
